<?xml version="1.0" encoding="UTF-8" standalone="no"?>
<!-- Generator: Adobe Illustrator 18.0.0, SVG Export Plug-In . SVG Version: 6.00 Build 0)  -->

<svg
   xmlns:dc="http://purl.org/dc/elements/1.1/"
   xmlns:cc="http://creativecommons.org/ns#"
   xmlns:rdf="http://www.w3.org/1999/02/22-rdf-syntax-ns#"
   xmlns:svg="http://www.w3.org/2000/svg"
   xmlns="http://www.w3.org/2000/svg"
   xmlns:sodipodi="http://sodipodi.sourceforge.net/DTD/sodipodi-0.dtd"
   xmlns:inkscape="http://www.inkscape.org/namespaces/inkscape"
   version="1.1"
   id="Layer_1"
   x="0px"
   y="0px"
   viewBox="0 0 862.59998 112.4"
   enable-background="new 0 0 960 560"
   xml:space="preserve"
   inkscape:version="0.91 r13725"
   sodipodi:docname="super_micro.svg"
   width="862.59998"
   height="112.4"><metadata
     id="metadata31"><rdf:RDF><cc:Work
         rdf:about=""><dc:format>image/svg+xml</dc:format><dc:type
           rdf:resource="http://purl.org/dc/dcmitype/StillImage" /><dc:title></dc:title></cc:Work></rdf:RDF></metadata><defs
     id="defs29" /><sodipodi:namedview
     pagecolor="#ffffff"
     bordercolor="#666666"
     borderopacity="1"
     objecttolerance="10"
     gridtolerance="10"
     guidetolerance="10"
     inkscape:pageopacity="0"
     inkscape:pageshadow="2"
     inkscape:window-width="1920"
     inkscape:window-height="1012"
     id="namedview27"
     showgrid="false"
     fit-margin-top="0"
     fit-margin-left="0"
     fit-margin-right="0"
     fit-margin-bottom="0"
     inkscape:zoom="2.0484582"
     inkscape:cx="431.29999"
     inkscape:cy="44.900006"
     inkscape:window-x="0"
     inkscape:window-y="0"
     inkscape:window-maximized="1"
     inkscape:current-layer="Layer_1" /><g
     id="g5"
     transform="translate(-96.4,-212.5)"><path
       d="m 160.6,212.5 0,37.2 -2.9,0 c -0.9,-7.1 -2.7,-12.8 -5.1,-17 -2.5,-4.2 -6,-7.6 -10.5,-10.1 -4.5,-2.5 -9.2,-3.7 -14.1,-3.7 -5.5,0 -10,1.7 -13.6,5 -3.6,3.4 -5.4,7.2 -5.4,11.4 0,3.3 1.1,6.3 3.4,9 3.3,4 11.1,9.2 23.4,15.9 10,5.4 16.9,9.5 20.6,12.4 3.7,2.9 6.5,6.3 8.5,10.2 2,3.9 3,8 3,12.3 0,8.1 -3.2,15.2 -9.5,21 -6.3,5.9 -14.4,8.8 -24.4,8.8 -3.1,0 -6.1,-0.2 -8.8,-0.7 -1.6,-0.3 -5,-1.2 -10.2,-2.9 -5.2,-1.7 -8.4,-2.5 -9.8,-2.5 -1.3,0 -2.4,0.4 -3.1,1.2 -0.8,0.8 -1.3,2.4 -1.7,4.9 l -2.9,0 0,-36.9 2.9,0 c 1.4,7.7 3.2,13.5 5.5,17.3 2.3,3.8 5.9,7 10.7,9.6 4.8,2.5 10,3.8 15.7,3.8 6.6,0 11.8,-1.7 15.7,-5.2 3.8,-3.5 5.7,-7.6 5.7,-12.3 0,-2.6 -0.7,-5.3 -2.2,-8 -1.5,-2.7 -3.7,-5.2 -6.8,-7.5 -2.1,-1.6 -7.7,-5 -16.9,-10.1 -9.2,-5.2 -15.7,-9.3 -19.6,-12.3 -3.9,-3.1 -6.8,-6.4 -8.8,-10.1 -2,-3.7 -3,-7.8 -3,-12.2 0,-7.7 3,-14.4 8.9,-19.9 5.9,-5.6 13.4,-8.4 22.6,-8.4 5.7,0 11.8,1.4 18.1,4.2 3,1.3 5,2 6.3,2 1.4,0 2.5,-0.4 3.4,-1.2 0.9,-0.8 1.6,-2.5 2.1,-5 l 2.8,-0.2"
       id="path7"
       inkscape:connector-curvature="0"
       style="fill:#374ea1" /><path
       d="m 238.4,238.9 0,-2.4 30.6,0 0,2.4 -3.2,0 c -3.4,0 -6,1.4 -7.8,4.3 -0.9,1.3 -1.3,4.4 -1.3,9.2 l 0,35 c 0,8.7 -0.9,15.4 -2.6,20.1 -1.7,4.8 -5.1,8.9 -10.1,12.3 -5,3.4 -11.9,5.1 -20.5,5.1 -9.4,0 -16.6,-1.6 -21.5,-4.9 -4.9,-3.3 -8.3,-7.7 -10.4,-13.2 -1.4,-3.8 -2,-10.9 -2,-21.3 l 0,-33.7 c 0,-5.3 -0.7,-8.8 -2.2,-10.4 -1.5,-1.7 -3.8,-2.5 -7.1,-2.5 l -3.3,0 0,-2.4 37.3,0 0,2.4 -3.3,0 c -3.6,0 -6.1,1.1 -7.6,3.4 -1.1,1.5 -1.6,4.7 -1.6,9.5 l 0,37.6 c 0,3.4 0.3,7.2 0.9,11.5 0.6,4.3 1.7,7.7 3.3,10.1 1.6,2.4 3.9,4.4 7,6 3,1.6 6.8,2.4 11.2,2.4 5.6,0 10.7,-1.2 15.2,-3.7 4.5,-2.5 7.5,-5.6 9.1,-9.5 1.6,-3.8 2.4,-10.3 2.4,-19.5 l 0,-35 c 0,-5.4 -0.6,-8.8 -1.8,-10.1 -1.7,-1.9 -4.1,-2.8 -7.4,-2.8 l -3.3,0.1"
       id="path9"
       inkscape:connector-curvature="0"
       style="fill:#374ea1" /><path
       d="m 299.7,282.5 0,25.1 c 0,5.4 0.6,8.8 1.8,10.1 1.6,1.9 4.1,2.8 7.3,2.8 l 3.3,0 0,2.4 -37,0 0,-2.4 3.2,0 c 3.7,0 6.3,-1.2 7.8,-3.6 0.9,-1.3 1.3,-4.4 1.3,-9.4 l 0,-55.8 c 0,-5.4 -0.6,-8.8 -1.7,-10.1 -1.7,-1.9 -4.1,-2.8 -7.4,-2.8 l -3.2,0 0,-2.4 31.6,0 c 7.7,0 13.8,0.8 18.3,2.4 4.5,1.6 8.2,4.3 11.3,8.1 3.1,3.8 4.6,8.3 4.6,13.4 0,7 -2.3,12.8 -7,17.2 -4.6,4.4 -11.2,6.6 -19.7,6.6 -2.1,0 -4.3,-0.1 -6.7,-0.4 -2.5,-0.2 -5.1,-0.6 -7.8,-1.2 m 0,-3.6 c 2.2,0.4 4.2,0.7 6,1 1.7,0.2 3.2,0.3 4.5,0.3 4.4,0 8.2,-1.7 11.4,-5.1 3.2,-3.4 4.8,-7.8 4.8,-13.3 0,-3.7 -0.8,-7.2 -2.3,-10.4 -1.5,-3.2 -3.7,-5.6 -6.5,-7.2 -2.8,-1.6 -6,-2.4 -9.5,-2.4 -2.2,0 -4.9,0.4 -8.3,1.2 l -0.1,35.9 0,0 z"
       id="path11"
       inkscape:connector-curvature="0"
       style="fill:#374ea1" /><path
       d="m 375.3,241.3 0,34.1 19,0 c 4.9,0 8.2,-0.7 9.9,-2.2 2.2,-2 3.4,-5.4 3.7,-10.3 l 2.4,0 0,30 -2.4,0 c -0.6,-4.2 -1.2,-6.9 -1.8,-8.1 -0.8,-1.5 -2,-2.6 -3.8,-3.5 -1.7,-0.9 -4.4,-1.3 -8,-1.3 l -19,0 0,28.5 c 0,3.8 0.2,6.1 0.5,7 0.3,0.8 0.9,1.5 1.8,2 0.8,0.5 2.5,0.7 4.8,0.7 l 14.6,0 c 4.9,0 8.4,-0.3 10.6,-1 2.2,-0.7 4.3,-2 6.4,-4 2.6,-2.6 5.3,-6.6 8.1,-11.9 l 2.5,0 -7.4,21.6 -66.5,0 0,-2.4 3.1,0 c 2,0 4,-0.5 5.8,-1.5 1.4,-0.7 2.3,-1.7 2.8,-3.1 0.5,-1.4 0.7,-4.1 0.7,-8.3 l 0,-56.1 c 0,-5.5 -0.6,-8.8 -1.7,-10.1 -1.5,-1.7 -4.1,-2.5 -7.6,-2.5 l -3.1,0 0,-2.4 66.5,0 1,18.9 -2.5,0 c -0.9,-4.5 -1.9,-7.7 -3,-9.4 -1.1,-1.7 -2.7,-3 -4.8,-3.9 -1.7,-0.6 -4.7,-1 -9,-1 l -23.6,0.2 0,0 z"
       id="path13"
       inkscape:connector-curvature="0"
       style="fill:#374ea1" /><path
       d="m 518.4,322.9 -23,0 -29.2,-40.4 c -2.2,0.1 -3.9,0.1 -5.3,0.1 -0.6,0 -1.1,0 -1.8,0 -0.6,0 -1.3,-0.1 -2,-0.1 l 0,25.1 c 0,5.4 0.6,8.8 1.8,10.1 1.6,1.9 4,2.8 7.3,2.8 l 3.4,0 0,2.4 -37,0 0,-2.4 3.2,0 c 3.6,0 6.3,-1.2 7.8,-3.6 0.9,-1.3 1.3,-4.4 1.3,-9.4 l 0,-55.8 c 0,-5.4 -0.6,-8.8 -1.8,-10.1 -1.7,-1.9 -4.1,-2.8 -7.4,-2.8 l -3.2,0 0,-2.4 31.5,0 c 9.2,0 15.9,0.7 20.3,2 4.3,1.3 8,3.8 11.1,7.4 3,3.6 4.6,7.9 4.6,12.8 0,5.3 -1.7,9.9 -5.2,13.8 -3.5,3.9 -8.8,6.7 -16.1,8.3 l 17.8,24.8 c 4.1,5.7 7.6,9.5 10.5,11.3 2.9,1.9 6.7,3.1 11.5,3.6 l -0.1,2.5 m -61.3,-44.3 c 0.8,0 1.5,0 2.1,0 0.6,0 1.1,0 1.5,0 8.2,0 14.4,-1.8 18.6,-5.3 4.2,-3.6 6.3,-8.1 6.3,-13.6 0,-5.4 -1.7,-9.8 -5.1,-13.1 -3.4,-3.4 -7.8,-5.1 -13.4,-5.1 -2.5,0 -5.8,0.4 -10,1.2 l 0,35.9"
       id="path15"
       inkscape:connector-curvature="0"
       style="fill:#374ea1" /><path
       d="m 573.2,322.9 -33.4,-72.6 0,57.7 c 0,5.3 0.6,8.6 1.7,9.9 1.6,1.8 4.1,2.7 7.4,2.7 l 3.1,0 0,2.4 -30,0 0,-2.4 3.1,0 c 3.6,0 6.2,-1.1 7.8,-3.3 0.9,-1.4 1.4,-4.5 1.4,-9.3 l 0,-56.4 c 0,-3.8 -0.4,-6.6 -1.3,-8.3 -0.6,-1.2 -1.7,-2.3 -3.3,-3.1 -1.6,-0.8 -4.1,-1.2 -7.7,-1.2 l 0,-2.4 24.4,0 31.3,67.5 30.8,-67.5 24.4,0 0,2.4 -3,0 c -3.7,0 -6.3,1.1 -7.8,3.3 -0.9,1.4 -1.4,4.5 -1.4,9.3 l 0,56.4 c 0,5.3 0.6,8.6 1.8,9.9 1.6,1.8 4.1,2.7 7.4,2.7 l 3,0 0,2.4 -36.7,0 0,-2.4 3.1,0 c 3.7,0 6.3,-1.1 7.8,-3.3 0.9,-1.4 1.4,-4.5 1.4,-9.3 l 0,-57.7 -33.3,72.6 -2,0"
       id="path17"
       inkscape:connector-curvature="0"
       style="fill:#374ea1" /><path
       d="m 678.6,320.5 0,2.4 -37,0 0,-2.4 3.1,0 c 3.6,0 6.2,-1 7.8,-3.1 1,-1.4 1.5,-4.6 1.5,-9.8 l 0,-55.8 c 0,-4.4 -0.3,-7.3 -0.8,-8.7 -0.4,-1.1 -1.3,-2 -2.6,-2.7 -1.9,-1 -3.8,-1.5 -5.9,-1.5 l -3.1,0 0,-2.4 37,0 0,2.4 -3.1,0 c -3.5,0 -6.1,1 -7.7,3.1 -1.1,1.4 -1.6,4.6 -1.6,9.8 l 0,55.8 c 0,4.4 0.3,7.3 0.8,8.7 0.4,1.1 1.3,2 2.7,2.7 1.8,1 3.8,1.5 5.8,1.5 l 3.1,0"
       id="path19"
       inkscape:connector-curvature="0"
       style="fill:#374ea1" /><path
       d="m 762.9,234.6 2,29.3 -2,0 c -2.6,-8.8 -6.4,-15.1 -11.3,-19 -4.9,-3.9 -10.7,-5.8 -17.6,-5.8 -5.7,0 -10.9,1.5 -15.5,4.4 -4.6,2.9 -8.3,7.5 -10.9,13.9 -2.7,6.4 -4,14.3 -4,23.7 0,7.8 1.3,14.6 3.8,20.3 2.5,5.7 6.3,10.1 11.3,13.2 5,3.1 10.8,4.6 17.2,4.6 5.6,0 10.5,-1.2 14.8,-3.6 4.3,-2.4 9,-7.2 14.1,-14.3 l 2,1.3 c -4.3,7.7 -9.4,13.3 -15.2,16.9 -5.8,3.6 -12.6,5.3 -20.6,5.3 -14.3,0 -25.4,-5.3 -33.2,-15.9 -5.9,-7.9 -8.8,-17.2 -8.8,-27.9 0,-8.6 1.9,-16.5 5.8,-23.7 3.9,-7.2 9.2,-12.8 15.9,-16.8 6.8,-4 14.2,-6 22.2,-6 6.2,0 12.4,1.5 18.5,4.6 1.8,0.9 3.1,1.4 3.8,1.4 1.1,0 2.1,-0.4 3,-1.2 1.1,-1.1 1.9,-2.7 2.4,-4.8 l 2.3,0"
       id="path21"
       inkscape:connector-curvature="0"
       style="fill:#374ea1" /><path
       d="m 862.1,322.9 -23,0 -29.2,-40.4 c -2.2,0.1 -3.9,0.1 -5.3,0.1 -0.6,0 -1.1,0 -1.8,0 -0.6,0 -1.3,-0.1 -2,-0.1 l 0,25.1 c 0,5.4 0.6,8.8 1.8,10.1 1.6,1.9 4,2.8 7.3,2.8 l 3.4,0 0,2.4 -37,0 0,-2.4 3.2,0 c 3.7,0 6.3,-1.2 7.8,-3.6 0.9,-1.3 1.3,-4.4 1.3,-9.4 l 0,-55.8 c 0,-5.4 -0.6,-8.8 -1.8,-10.1 -1.7,-1.9 -4.1,-2.8 -7.4,-2.8 l -3.2,0 0,-2.4 31.4,0 c 9.2,0 15.9,0.7 20.3,2 4.3,1.3 8,3.8 11.1,7.4 3,3.6 4.6,7.9 4.6,12.8 0,5.3 -1.7,9.9 -5.2,13.8 -3.5,3.9 -8.8,6.7 -16.1,8.3 l 17.8,24.8 c 4.1,5.7 7.6,9.5 10.5,11.3 2.9,1.9 6.7,3.1 11.5,3.6 l 0,2.5 0,0 z m -61.3,-44.4 c 0.8,0 1.5,0 2.1,0 0.6,0 1.1,0 1.5,0 8.2,0 14.4,-1.8 18.6,-5.3 4.2,-3.6 6.3,-8.1 6.3,-13.6 0,-5.4 -1.7,-9.8 -5.1,-13.1 -3.4,-3.4 -7.8,-5.1 -13.4,-5.1 -2.5,0 -5.8,0.4 -10,1.2 l 0,35.9 0,0 z"
       id="path23"
       inkscape:connector-curvature="0"
       style="fill:#374ea1" /></g><circle
     cx="814.69995"
     cy="64.400002"
     r="47.900002"
     id="circle25"
     style="fill:#ee2c24" /></svg>